<svg width="477" height="75" viewBox="0 0 477 75" fill="none" xmlns="http://www.w3.org/2000/svg">
<path d="M21.264 15.328L4.848 16.096C3.824 16.096 2.768 15.424 1.68 14.08C0.592 12.736 0.0480001 11.424 0.0480001 10.144C0.0480001 8.99199 1.872 8.25599 5.52 7.936C9.232 7.616 17.328 7.456 29.808 7.456C36.272 7.456 41.584 8.16 45.744 9.568C49.968 10.976 52.08 12.544 52.08 14.272C52.08 15.488 51.024 16.096 48.912 16.096C46.8 16.096 43.856 15.968 40.08 15.712C36.304 15.456 32.688 15.296 29.232 15.232C29.424 15.872 29.52 16.576 29.52 17.344C29.52 19.712 27.024 30.72 22.032 50.368C21.52 52.416 20.752 55.616 19.728 59.968C18.704 64.32 17.936 67.36 17.424 69.088C16.528 72.48 15.728 74.176 15.024 74.176C14.064 74.176 12.976 73.472 11.76 72.064C10.608 70.592 10.032 69.12 10.032 67.648C10.032 66.176 11.76 58.624 15.216 44.992C18.672 31.296 20.688 21.408 21.264 15.328ZM59.679 3.808C59.679 1.312 60.447 0.0639992 61.983 0.0639992C63.199 0.0639992 64.479 1.024 65.823 2.944C67.231 4.864 67.935 6.72 67.935 8.512C67.935 12.672 66.879 19.776 64.767 29.824C62.719 39.808 60.031 49.792 56.703 59.776C63.103 48.192 68.447 39.84 72.735 34.72C77.087 29.536 80.799 26.944 83.871 26.944C85.535 26.944 87.455 28.384 89.631 31.264C91.871 34.144 92.991 37.024 92.991 39.904C92.991 42.784 92.191 47.104 90.591 52.864C86.623 67.328 82.879 74.56 79.359 74.56C77.951 74.56 77.247 73.6 77.247 71.68C77.247 69.76 78.015 66.528 79.551 61.984C82.943 52.064 84.639 45.376 84.639 41.92C84.639 40.768 84.351 39.808 83.775 39.04C83.199 38.272 82.495 37.888 81.663 37.888C80.831 37.888 79.807 38.336 78.591 39.232C77.375 40.128 75.903 41.696 74.175 43.936C71.999 46.816 69.727 50.048 67.359 53.632C65.055 57.216 63.647 59.392 63.135 60.16C62.687 60.864 61.855 62.176 60.639 64.096C59.487 66.016 58.623 67.456 58.047 68.416C57.471 69.312 56.767 70.304 55.935 71.392C54.463 73.504 53.343 74.56 52.575 74.56C51.807 74.56 50.783 73.856 49.503 72.448C48.223 70.976 47.583 69.76 47.583 68.8C47.583 67.776 47.935 65.888 48.639 63.136C51.839 50.848 53.855 42.432 54.687 37.888C58.015 21.248 59.679 9.888 59.679 3.808ZM138.124 42.88C138.124 46.272 136.268 49.056 132.556 51.232C128.908 53.344 124.748 54.4 120.076 54.4C115.468 54.4 111.276 53.888 107.5 52.864C106.604 55.68 106.156 58.208 106.156 60.448C106.156 62.624 106.828 64.32 108.172 65.536C109.58 66.752 111.852 67.36 114.988 67.36C118.188 67.36 121.452 66.816 124.78 65.728C128.172 64.576 130.028 64 130.348 64C132.012 64 132.844 64.64 132.844 65.92C132.844 67.648 130.892 69.536 126.988 71.584C123.084 73.568 119.276 74.56 115.564 74.56C110.572 74.56 106.508 73.088 103.372 70.144C100.236 67.136 98.6678 63.36 98.6678 58.816C98.6678 54.272 99.8838 49.536 102.316 44.608C104.748 39.616 107.884 35.424 111.724 32.032C115.564 28.64 119.372 26.944 123.148 26.944C126.924 26.944 130.348 28.736 133.42 32.32C136.556 35.904 138.124 39.424 138.124 42.88ZM123.628 34.528C121.26 34.528 118.796 35.776 116.236 38.272C113.676 40.704 111.5 43.744 109.708 47.392C112.268 47.968 115.18 48.256 118.444 48.256C121.708 48.256 124.556 47.744 126.988 46.72C129.42 45.632 130.636 44.224 130.636 42.496C130.636 40.768 129.836 39.008 128.236 37.216C126.7 35.424 125.164 34.528 123.628 34.528ZM232.258 22.912C232.258 29.824 228.93 35.68 222.274 40.48C215.682 45.28 206.946 48.736 196.066 50.848C191.394 66.656 188.61 74.56 187.714 74.56C186.818 74.56 185.762 73.856 184.546 72.448C183.33 70.976 182.722 69.536 182.722 68.128C182.722 66.656 183.65 62.816 185.506 56.608C191.266 37.472 194.274 24.128 194.53 16.576C192.994 15.168 192.226 13.888 192.226 12.736C192.226 11.136 194.402 9.6 198.754 8.128C203.106 6.656 207.266 5.92 211.234 5.92C217.378 5.92 222.402 7.488 226.306 10.624C230.274 13.76 232.258 17.856 232.258 22.912ZM223.81 23.488C223.81 20.672 222.722 18.368 220.546 16.576C218.434 14.72 215.874 13.792 212.866 13.792C209.858 13.792 206.21 14.752 201.922 16.672C202.562 18.08 202.882 19.392 202.882 20.608C202.882 24.192 201.314 31.776 198.178 43.36C205.858 41.312 212.034 38.496 216.706 34.912C221.442 31.264 223.81 27.456 223.81 23.488ZM245.983 13.312C245.983 12.032 246.495 10.816 247.519 9.664C248.543 8.512 249.567 7.936 250.591 7.936C251.679 7.936 252.959 9.248 254.431 11.872C255.903 14.432 256.639 16.576 256.639 18.304C256.639 18.944 256.351 19.52 255.775 20.032C255.199 20.544 254.591 20.8 253.951 20.8C252.415 20.8 250.687 19.872 248.767 18.016C246.911 16.16 245.983 14.592 245.983 13.312ZM245.503 26.944C246.719 26.944 247.871 27.68 248.959 29.152C250.047 30.624 250.591 32.064 250.591 33.472C250.591 34.88 249.663 39.104 247.807 46.144C245.951 53.12 243.615 60.96 240.799 69.664C239.711 72.864 238.335 74.464 236.671 74.464C235.775 74.464 235.007 74.112 234.367 73.408C233.727 72.64 233.407 71.808 233.407 70.912C233.407 69.952 233.631 68.48 234.079 66.496C234.591 64.448 235.295 61.76 236.191 58.432C237.151 55.04 237.887 52.288 238.399 50.176C238.975 48.064 239.551 45.696 240.127 43.072C240.703 40.384 241.151 38.24 241.471 36.64C241.855 34.976 242.271 33.312 242.719 31.648C243.615 28.512 244.543 26.944 245.503 26.944ZM258.778 30.784C258.778 29.568 260.186 28.64 263.002 28C265.818 27.296 269.658 26.944 274.522 26.944C279.45 26.944 283.482 27.584 286.618 28.864C288.026 29.44 289.306 30.624 290.458 32.416C291.674 34.144 292.282 35.584 292.282 36.736C292.282 39.168 290.778 41.952 287.77 45.088C284.826 48.224 281.594 51.008 278.074 53.44C274.554 55.872 271.29 58.208 268.282 60.448C265.338 62.688 263.866 64.192 263.866 64.96C263.866 66.048 264.698 66.592 266.362 66.592C270.01 66.592 274.49 66.336 279.802 65.824C285.114 65.312 288.282 65.056 289.306 65.056C291.802 65.056 293.05 65.792 293.05 67.264C293.05 69.312 289.85 71.04 283.45 72.448C277.05 73.856 270.874 74.56 264.922 74.56C262.17 74.56 259.642 73.536 257.338 71.488C255.034 69.376 253.882 67.456 253.882 65.728C253.882 64 255.482 61.696 258.682 58.816C261.946 55.872 265.498 53.088 269.338 50.464C279.642 43.296 284.794 38.816 284.794 37.024C284.794 35.808 281.53 35.2 275.002 35.2C273.402 35.2 271.418 35.392 269.05 35.776C266.682 36.096 264.954 36.256 263.866 36.256C262.842 36.256 261.722 35.584 260.506 34.24C259.354 32.896 258.778 31.744 258.778 30.784ZM301.059 30.784C301.059 29.568 302.467 28.64 305.283 28C308.099 27.296 311.939 26.944 316.803 26.944C321.731 26.944 325.763 27.584 328.899 28.864C330.307 29.44 331.587 30.624 332.739 32.416C333.955 34.144 334.563 35.584 334.563 36.736C334.563 39.168 333.059 41.952 330.051 45.088C327.107 48.224 323.875 51.008 320.355 53.44C316.835 55.872 313.571 58.208 310.563 60.448C307.619 62.688 306.147 64.192 306.147 64.96C306.147 66.048 306.979 66.592 308.643 66.592C312.291 66.592 316.771 66.336 322.083 65.824C327.395 65.312 330.563 65.056 331.587 65.056C334.083 65.056 335.331 65.792 335.331 67.264C335.331 69.312 332.131 71.04 325.731 72.448C319.331 73.856 313.155 74.56 307.203 74.56C304.451 74.56 301.923 73.536 299.619 71.488C297.315 69.376 296.163 67.456 296.163 65.728C296.163 64 297.763 61.696 300.963 58.816C304.227 55.872 307.779 53.088 311.619 50.464C321.923 43.296 327.075 38.816 327.075 37.024C327.075 35.808 323.811 35.2 317.283 35.2C315.683 35.2 313.699 35.392 311.331 35.776C308.963 36.096 307.235 36.256 306.147 36.256C305.123 36.256 304.003 35.584 302.787 34.24C301.635 32.896 301.059 31.744 301.059 30.784ZM379.436 42.88C379.436 46.272 377.58 49.056 373.868 51.232C370.22 53.344 366.06 54.4 361.388 54.4C356.78 54.4 352.588 53.888 348.812 52.864C347.916 55.68 347.468 58.208 347.468 60.448C347.468 62.624 348.14 64.32 349.484 65.536C350.892 66.752 353.164 67.36 356.3 67.36C359.5 67.36 362.764 66.816 366.092 65.728C369.484 64.576 371.34 64 371.66 64C373.324 64 374.156 64.64 374.156 65.92C374.156 67.648 372.204 69.536 368.3 71.584C364.396 73.568 360.588 74.56 356.876 74.56C351.884 74.56 347.82 73.088 344.684 70.144C341.548 67.136 339.98 63.36 339.98 58.816C339.98 54.272 341.196 49.536 343.628 44.608C346.06 39.616 349.196 35.424 353.036 32.032C356.876 28.64 360.684 26.944 364.46 26.944C368.236 26.944 371.66 28.736 374.732 32.32C377.868 35.904 379.436 39.424 379.436 42.88ZM364.94 34.528C362.572 34.528 360.108 35.776 357.548 38.272C354.988 40.704 352.812 43.744 351.02 47.392C353.58 47.968 356.492 48.256 359.756 48.256C363.02 48.256 365.868 47.744 368.3 46.72C370.732 45.632 371.948 44.224 371.948 42.496C371.948 40.768 371.148 39.008 369.548 37.216C368.012 35.424 366.476 34.528 364.94 34.528ZM390.111 38.656L389.823 31.456C389.823 28.448 390.527 26.944 391.935 26.944C393.151 26.944 394.303 27.744 395.391 29.344C396.543 30.88 397.119 32.736 397.119 34.912C397.119 37.024 397.055 38.624 396.927 39.712C402.495 31.264 407.775 27.04 412.767 27.04C415.903 27.04 417.471 27.808 417.471 29.344C417.471 30.112 417.119 30.816 416.415 31.456C415.711 32.096 414.591 32.832 413.055 33.664C409.663 35.136 406.783 37.408 404.415 40.48C402.111 43.488 400.223 46.912 398.751 50.752C397.279 54.592 396.095 57.824 395.199 60.448C394.367 63.072 393.727 65.12 393.279 66.592C392.831 68.064 392.319 69.504 391.743 70.912C390.719 73.472 389.535 74.752 388.191 74.752C387.103 74.752 386.207 74.144 385.503 72.928C384.863 71.648 384.543 70.432 384.543 69.28C384.543 68.064 385.087 65.696 386.175 62.176C388.799 54.112 390.111 46.272 390.111 38.656ZM428.42 13.312C428.42 12.032 428.932 10.816 429.956 9.664C430.98 8.512 432.004 7.936 433.028 7.936C434.116 7.936 435.396 9.248 436.868 11.872C438.34 14.432 439.076 16.576 439.076 18.304C439.076 18.944 438.788 19.52 438.212 20.032C437.636 20.544 437.028 20.8 436.388 20.8C434.852 20.8 433.124 19.872 431.204 18.016C429.348 16.16 428.42 14.592 428.42 13.312ZM427.94 26.944C429.156 26.944 430.308 27.68 431.396 29.152C432.484 30.624 433.028 32.064 433.028 33.472C433.028 34.88 432.1 39.104 430.244 46.144C428.388 53.12 426.052 60.96 423.236 69.664C422.148 72.864 420.772 74.464 419.108 74.464C418.212 74.464 417.444 74.112 416.804 73.408C416.164 72.64 415.844 71.808 415.844 70.912C415.844 69.952 416.068 68.48 416.516 66.496C417.028 64.448 417.732 61.76 418.628 58.432C419.588 55.04 420.324 52.288 420.836 50.176C421.412 48.064 421.988 45.696 422.564 43.072C423.14 40.384 423.588 38.24 423.908 36.64C424.292 34.976 424.708 33.312 425.156 31.648C426.052 28.512 426.98 26.944 427.94 26.944ZM464.543 26.944C467.423 26.944 470.079 28.416 472.511 31.36C474.943 34.24 476.159 36.864 476.159 39.232C476.159 41.536 475.359 43.904 473.759 46.336C474.527 47.296 474.911 48.128 474.911 48.832C474.911 50.624 474.495 53.696 473.663 58.048C472.895 62.4 472.415 65.248 472.223 66.592C472.095 67.936 471.967 69.024 471.839 69.856C471.711 70.624 471.551 71.392 471.359 72.16C471.103 73.76 470.527 74.56 469.631 74.56C468.479 74.56 467.519 73.568 466.751 71.584C466.047 69.536 465.631 66.912 465.503 63.712C459.807 70.944 454.527 74.56 449.663 74.56C446.719 74.56 443.807 73.312 440.927 70.816C438.111 68.256 436.703 65.632 436.703 62.944C436.703 59.104 438.111 54.368 440.927 48.736C443.743 43.04 447.391 37.984 451.871 33.568C456.351 29.152 460.575 26.944 464.543 26.944ZM468.959 43.84C468.959 37.888 467.775 34.912 465.407 34.912C462.911 34.912 459.999 36.704 456.671 40.288C453.343 43.808 450.527 47.808 448.223 52.288C445.919 56.768 444.767 60.32 444.767 62.944C444.767 64.032 445.215 64.928 446.111 65.632C447.007 66.272 448.063 66.592 449.279 66.592C452.287 66.592 455.679 64.576 459.455 60.544C463.231 56.448 465.855 51.488 467.327 45.664C467.519 44.704 468.063 44.128 468.959 43.936V43.84Z" fill="#001A41"/>
</svg>
